<svg xmlns="http://www.w3.org/2000/svg" xmlns:xlink="http://www.w3.org/1999/xlink" width="500" zoomAndPan="magnify" viewBox="0 0 375 374.999991" height="500" preserveAspectRatio="xMidYMid meet" version="1.0"><defs><clipPath id="b48117afa6"><path d="M 260 222 L 310 222 L 310 271.707031 L 260 271.707031 Z M 260 222 " clip-rule="nonzero"/></clipPath><clipPath id="af5f153f48"><path d="M 63 222 L 113 222 L 113 271.707031 L 63 271.707031 Z M 63 222 " clip-rule="nonzero"/></clipPath></defs><rect x="-37.5" width="450" fill="none" y="-37.499999" height="449.999989" fill-opacity="1"/><rect x="-37.5" width="450" fill="none" y="-37.499999" height="449.999989" fill-opacity="1"/><path fill="#d9d9d9" d="M 30.972656 247.097656 C 26.769531 236.574219 25.890625 226.410156 26.367188 217.96875 C 54.511719 214.636719 52.6875 193.671875 51.90625 188.929688 C 68.855469 181.234375 86.792969 170.382812 86.792969 170.382812 C 135.429688 141.578125 215.785156 148.804688 260.433594 181.8125 C 265.652344 185.671875 288.988281 189.441406 307.183594 192.539062 C 307.953125 195.390625 318.167969 231.050781 345.738281 219.617188 C 349.082031 233.050781 345.761719 247.097656 334.125 247.097656 L 316.53125 247.097656 C 316.53125 229.738281 302.472656 215.664062 285.132812 215.664062 C 267.796875 215.664062 253.738281 229.738281 253.738281 247.097656 L 119.484375 247.097656 C 119.484375 229.738281 105.425781 215.664062 88.085938 215.664062 C 70.75 215.664062 56.691406 229.738281 56.691406 247.097656 Z M 171.179688 165.566406 L 171.179688 192.238281 L 252.746094 192.238281 C 231.730469 176.703125 201.519531 167.339844 171.179688 165.566406 Z M 158.707031 192.238281 L 158.707031 165.269531 C 134.746094 165.539062 111.488281 170.710938 93.460938 181.492188 C 88.410156 184.546875 82.039062 188.421875 74.890625 192.238281 Z M 194.472656 208.550781 C 199.160156 208.550781 199.160156 201.414062 194.472656 201.414062 L 179.738281 201.414062 C 175.050781 201.414062 175.050781 208.550781 179.738281 208.550781 Z M 106.265625 208.550781 C 110.953125 208.550781 110.953125 201.414062 106.265625 201.414062 L 91.53125 201.414062 C 86.84375 201.414062 86.84375 208.550781 91.53125 208.550781 Z M 27.132812 210.683594 C 28.5 201.839844 30.972656 196.1875 30.972656 196.1875 C 34.875 195.59375 39.800781 193.992188 45.097656 191.859375 C 45.414062 196.75 44.210938 207.996094 27.132812 210.683594 Z M 315.070312 193.90625 C 319.667969 194.730469 323.554688 195.488281 326.191406 196.171875 C 334.125 198.234375 340.007812 204.957031 343.453125 212.867188 C 326.390625 220.113281 317.859375 201.765625 315.070312 193.90625 Z M 315.070312 193.90625 " fill-opacity="1" fill-rule="evenodd"/><g clip-path="url(#b48117afa6)"><path fill="#d9d9d9" d="M 285.136719 222.800781 C 271.730469 222.800781 260.863281 233.679688 260.863281 247.097656 C 260.863281 260.519531 271.730469 271.398438 285.136719 271.398438 C 298.539062 271.398438 309.40625 260.519531 309.40625 247.097656 C 309.40625 233.679688 298.539062 222.800781 285.136719 222.800781 Z M 285.136719 236.28125 C 279.167969 236.28125 274.328125 241.125 274.328125 247.097656 C 274.328125 253.074219 279.167969 257.917969 285.136719 257.917969 C 291.101562 257.917969 295.941406 253.074219 295.941406 247.097656 C 295.941406 241.125 291.101562 236.28125 285.136719 236.28125 Z M 285.136719 236.28125 " fill-opacity="1" fill-rule="evenodd"/></g><g clip-path="url(#af5f153f48)"><path fill="#d9d9d9" d="M 88.085938 222.800781 C 74.683594 222.800781 63.816406 233.679688 63.816406 247.097656 C 63.816406 260.519531 74.683594 271.398438 88.085938 271.398438 C 101.492188 271.398438 112.355469 260.519531 112.355469 247.097656 C 112.355469 233.679688 101.492188 222.800781 88.085938 222.800781 Z M 88.085938 236.28125 C 82.121094 236.28125 77.28125 241.125 77.28125 247.097656 C 77.28125 253.074219 82.121094 257.917969 88.085938 257.917969 C 94.054688 257.917969 98.894531 253.074219 98.894531 247.097656 C 98.894531 241.125 94.054688 236.28125 88.085938 236.28125 Z M 88.085938 236.28125 " fill-opacity="1" fill-rule="evenodd"/></g><path fill="#d9d9d9" d="M 179.210938 146.019531 L 179.210938 138.296875 C 179.210938 135.527344 176.945312 133.257812 174.179688 133.257812 L 153.457031 133.257812 C 150.6875 133.257812 148.421875 135.527344 148.421875 138.296875 L 148.421875 145.570312 C 158.589844 144.914062 168.941406 145.074219 179.210938 146.019531 Z M 179.210938 146.019531 " fill-opacity="1" fill-rule="evenodd"/></svg>